<mxfile host="app.diagrams.net" modified="2023-12-27T09:59:43.772Z" agent="Mozilla/5.0 (Windows NT 10.0; Win64; x64) AppleWebKit/537.36 (KHTML, like Gecko) Chrome/119.0.0.0 Safari/537.36" etag="NCR7C15RI0NXT_AJedcS" version="22.1.12" type="github">
  <diagram name="第 1 页" id="C6FDBwsaqbc1yJ5aqpkr">
    <mxGraphModel dx="1050" dy="557" grid="1" gridSize="10" guides="1" tooltips="1" connect="1" arrows="1" fold="1" page="1" pageScale="1" pageWidth="827" pageHeight="1169" math="0" shadow="0">
      <root>
        <mxCell id="0" />
        <mxCell id="1" parent="0" />
        <mxCell id="zUKTudWMmVZDvAgk6LWm-13" value="肾精" style="rounded=1;whiteSpace=wrap;html=1;fontSize=17;" vertex="1" parent="1">
          <mxGeometry x="321" y="807" width="120" height="60" as="geometry" />
        </mxCell>
        <mxCell id="BYbhVeizRni8V0UwQ8j1-4" value="" style="endArrow=classic;html=1;rounded=0;exitX=0.391;exitY=0.017;exitDx=0;exitDy=0;exitPerimeter=0;entryX=0.75;entryY=1;entryDx=0;entryDy=0;" parent="1" source="BYbhVeizRni8V0UwQ8j1-17" target="BYbhVeizRni8V0UwQ8j1-16" edge="1">
          <mxGeometry width="50" height="50" relative="1" as="geometry">
            <mxPoint x="468.0414891646601" y="281" as="sourcePoint" />
            <mxPoint x="460" y="190" as="targetPoint" />
          </mxGeometry>
        </mxCell>
        <mxCell id="BYbhVeizRni8V0UwQ8j1-7" value="&lt;font style=&quot;font-size: 14px;&quot;&gt;1、脾升津上输于肺&lt;/font&gt;" style="edgeLabel;html=1;align=center;verticalAlign=middle;resizable=0;points=[];fontColor=#2E89FF;" parent="BYbhVeizRni8V0UwQ8j1-4" vertex="1" connectable="0">
          <mxGeometry x="0.1023" y="-3" relative="1" as="geometry">
            <mxPoint as="offset" />
          </mxGeometry>
        </mxCell>
        <mxCell id="BYbhVeizRni8V0UwQ8j1-14" style="edgeStyle=orthogonalEdgeStyle;rounded=0;orthogonalLoop=1;jettySize=auto;html=1;exitX=1;exitY=0.5;exitDx=0;exitDy=0;" parent="1" source="BYbhVeizRni8V0UwQ8j1-18" edge="1">
          <mxGeometry relative="1" as="geometry">
            <mxPoint x="596.14" y="280" as="targetPoint" />
            <mxPoint x="510.0000000000001" y="389.21000000000004" as="sourcePoint" />
          </mxGeometry>
        </mxCell>
        <mxCell id="BYbhVeizRni8V0UwQ8j1-15" value="&lt;font color=&quot;#708dff&quot; style=&quot;font-size: 15px;&quot;&gt;3、肾阳蒸腾化气&lt;/font&gt;" style="edgeLabel;html=1;align=center;verticalAlign=middle;resizable=0;points=[];fontSize=15;" parent="BYbhVeizRni8V0UwQ8j1-14" vertex="1" connectable="0">
          <mxGeometry x="0.469" relative="1" as="geometry">
            <mxPoint as="offset" />
          </mxGeometry>
        </mxCell>
        <mxCell id="BYbhVeizRni8V0UwQ8j1-11" value="" style="endArrow=classic;html=1;rounded=0;entryX=0;entryY=0;entryDx=0;entryDy=0;exitX=0.25;exitY=1;exitDx=0;exitDy=0;" parent="1" source="BYbhVeizRni8V0UwQ8j1-16" target="BYbhVeizRni8V0UwQ8j1-18" edge="1">
          <mxGeometry width="50" height="50" relative="1" as="geometry">
            <mxPoint x="344.0725" y="200" as="sourcePoint" />
            <mxPoint x="337" y="384.21000000000004" as="targetPoint" />
          </mxGeometry>
        </mxCell>
        <mxCell id="BYbhVeizRni8V0UwQ8j1-12" value="&lt;font style=&quot;font-size: 15px;&quot;&gt;2、肺宣降，下输于肾和膀胱&lt;/font&gt;" style="edgeLabel;html=1;align=center;verticalAlign=middle;resizable=0;points=[];fontColor=#54AFFF;" parent="BYbhVeizRni8V0UwQ8j1-11" vertex="1" connectable="0">
          <mxGeometry x="-0.0803" y="-3" relative="1" as="geometry">
            <mxPoint x="-31" y="6" as="offset" />
          </mxGeometry>
        </mxCell>
        <mxCell id="BYbhVeizRni8V0UwQ8j1-16" value="肺" style="rounded=0;whiteSpace=wrap;html=1;fontSize=18;" parent="1" vertex="1">
          <mxGeometry x="333.43" y="110" width="186.57" height="60" as="geometry" />
        </mxCell>
        <mxCell id="BYbhVeizRni8V0UwQ8j1-17" value="脾" style="ellipse;whiteSpace=wrap;html=1;fontSize=19;" parent="1" vertex="1">
          <mxGeometry x="460" y="260" width="90" height="70" as="geometry" />
        </mxCell>
        <mxCell id="BYbhVeizRni8V0UwQ8j1-18" value="肾" style="ellipse;whiteSpace=wrap;html=1;fontSize=18;" parent="1" vertex="1">
          <mxGeometry x="330" y="350" width="180" height="80" as="geometry" />
        </mxCell>
        <mxCell id="zUKTudWMmVZDvAgk6LWm-1" value="脾" style="ellipse;whiteSpace=wrap;html=1;fontSize=20;" vertex="1" parent="1">
          <mxGeometry x="180" y="630" width="110" height="60" as="geometry" />
        </mxCell>
        <mxCell id="zUKTudWMmVZDvAgk6LWm-4" value="" style="shape=cylinder3;whiteSpace=wrap;html=1;boundedLbl=1;backgroundOutline=1;size=15;rotation=-90;" vertex="1" parent="1">
          <mxGeometry x="450" y="540" width="60" height="120" as="geometry" />
        </mxCell>
        <mxCell id="zUKTudWMmVZDvAgk6LWm-5" value="" style="endArrow=classic;html=1;rounded=0;exitX=1;exitY=0.5;exitDx=0;exitDy=0;entryX=0.5;entryY=0;entryDx=0;entryDy=0;entryPerimeter=0;" edge="1" parent="1" source="zUKTudWMmVZDvAgk6LWm-1" target="zUKTudWMmVZDvAgk6LWm-4">
          <mxGeometry width="50" height="50" relative="1" as="geometry">
            <mxPoint x="320" y="670" as="sourcePoint" />
            <mxPoint x="370" y="620" as="targetPoint" />
          </mxGeometry>
        </mxCell>
        <mxCell id="zUKTudWMmVZDvAgk6LWm-7" value="津液入脉化血" style="edgeLabel;html=1;align=center;verticalAlign=middle;resizable=0;points=[];fontSize=15;" vertex="1" connectable="0" parent="zUKTudWMmVZDvAgk6LWm-5">
          <mxGeometry x="0.0091" y="-1" relative="1" as="geometry">
            <mxPoint as="offset" />
          </mxGeometry>
        </mxCell>
        <mxCell id="zUKTudWMmVZDvAgk6LWm-6" value="脉管" style="text;html=1;strokeColor=none;fillColor=none;align=center;verticalAlign=middle;whiteSpace=wrap;rounded=0;fontSize=15;" vertex="1" parent="1">
          <mxGeometry x="460" y="585" width="60" height="30" as="geometry" />
        </mxCell>
        <mxCell id="zUKTudWMmVZDvAgk6LWm-9" value="水谷之精" style="text;html=1;strokeColor=none;fillColor=none;align=center;verticalAlign=middle;whiteSpace=wrap;rounded=0;" vertex="1" parent="1">
          <mxGeometry x="205" y="660" width="60" height="30" as="geometry" />
        </mxCell>
        <mxCell id="zUKTudWMmVZDvAgk6LWm-11" value="肝" style="ellipse;whiteSpace=wrap;html=1;fontSize=17;" vertex="1" parent="1">
          <mxGeometry x="191" y="747" width="85" height="50" as="geometry" />
        </mxCell>
        <mxCell id="zUKTudWMmVZDvAgk6LWm-12" value="肾" style="ellipse;whiteSpace=wrap;html=1;fontSize=17;" vertex="1" parent="1">
          <mxGeometry x="191" y="857" width="85" height="50" as="geometry" />
        </mxCell>
        <mxCell id="zUKTudWMmVZDvAgk6LWm-15" value="" style="endArrow=classic;html=1;rounded=0;entryX=0;entryY=0.75;entryDx=0;entryDy=0;exitX=1;exitY=0.5;exitDx=0;exitDy=0;" edge="1" parent="1" source="zUKTudWMmVZDvAgk6LWm-12" target="zUKTudWMmVZDvAgk6LWm-13">
          <mxGeometry width="50" height="50" relative="1" as="geometry">
            <mxPoint x="271" y="887" as="sourcePoint" />
            <mxPoint x="321" y="837" as="targetPoint" />
          </mxGeometry>
        </mxCell>
        <mxCell id="zUKTudWMmVZDvAgk6LWm-24" value="推动" style="edgeLabel;html=1;align=center;verticalAlign=middle;resizable=0;points=[];fontSize=14;" vertex="1" connectable="0" parent="zUKTudWMmVZDvAgk6LWm-15">
          <mxGeometry x="-0.0687" y="-3" relative="1" as="geometry">
            <mxPoint as="offset" />
          </mxGeometry>
        </mxCell>
        <mxCell id="zUKTudWMmVZDvAgk6LWm-17" value="" style="endArrow=classic;html=1;rounded=0;entryX=0;entryY=0.25;entryDx=0;entryDy=0;exitX=1;exitY=0.5;exitDx=0;exitDy=0;" edge="1" parent="1" source="zUKTudWMmVZDvAgk6LWm-11" target="zUKTudWMmVZDvAgk6LWm-13">
          <mxGeometry width="50" height="50" relative="1" as="geometry">
            <mxPoint x="271" y="767" as="sourcePoint" />
            <mxPoint x="321" y="727" as="targetPoint" />
          </mxGeometry>
        </mxCell>
        <mxCell id="zUKTudWMmVZDvAgk6LWm-18" value="&lt;font style=&quot;font-size: 14px;&quot;&gt;推动&lt;/font&gt;" style="edgeLabel;html=1;align=center;verticalAlign=middle;resizable=0;points=[];" vertex="1" connectable="0" parent="zUKTudWMmVZDvAgk6LWm-17">
          <mxGeometry x="-0.2659" y="-1" relative="1" as="geometry">
            <mxPoint as="offset" />
          </mxGeometry>
        </mxCell>
        <mxCell id="zUKTudWMmVZDvAgk6LWm-25" value="" style="endArrow=classic;html=1;rounded=0;entryX=1;entryY=0.5;entryDx=0;entryDy=0;" edge="1" parent="1" target="zUKTudWMmVZDvAgk6LWm-11">
          <mxGeometry width="50" height="50" relative="1" as="geometry">
            <mxPoint x="441" y="837" as="sourcePoint" />
            <mxPoint x="491" y="787" as="targetPoint" />
            <Array as="points">
              <mxPoint x="471" y="837" />
              <mxPoint x="471" y="772" />
            </Array>
          </mxGeometry>
        </mxCell>
        <mxCell id="zUKTudWMmVZDvAgk6LWm-26" value="&lt;font style=&quot;font-size: 15px;&quot;&gt;入肝化血&lt;/font&gt;" style="edgeLabel;html=1;align=center;verticalAlign=middle;resizable=0;points=[];" vertex="1" connectable="0" parent="zUKTudWMmVZDvAgk6LWm-25">
          <mxGeometry x="0.2979" y="-3" relative="1" as="geometry">
            <mxPoint as="offset" />
          </mxGeometry>
        </mxCell>
      </root>
    </mxGraphModel>
  </diagram>
</mxfile>
